<svg width="49" height="49" viewBox="0 0 49 49" fill="none" xmlns="http://www.w3.org/2000/svg">
<circle cx="24.4591" cy="24.4591" r="24.4591" fill="white"/>
<g filter="url(#filter0_d_102_12)">
<path d="M20 33.6742V33.0075H15C14.2047 33.0065 13.4423 32.6901 12.8799 32.1277C12.3175 31.5653 12.0011 30.8029 12 30.0075V29.4982C11.9974 28.8639 12.1728 28.2416 12.5064 27.7021C12.8399 27.1625 13.3181 26.7274 13.8867 26.4462C14.1409 26.3191 14.3584 26.1289 14.5183 25.8939C14.6782 25.6588 14.7752 25.3867 14.8 25.1035L15.3947 18.5569C15.5803 16.4926 16.5315 14.5724 18.0613 13.1739C19.5911 11.7755 21.5887 11 23.6614 11C25.734 11 27.7317 11.7755 29.2615 13.1739C30.7912 14.5724 31.7425 16.4926 31.928 18.5569L32.5227 25.1035C32.5496 25.386 32.6476 25.657 32.8076 25.8913C32.9675 26.1256 33.1842 26.3156 33.4374 26.4435C34.0064 26.7249 34.4851 27.1602 34.8193 27.6998C35.1535 28.2395 35.3297 28.8621 35.328 29.4969V30.0062C35.3273 30.8016 35.011 31.5643 34.4486 32.1268C33.8861 32.6892 33.1235 33.0055 32.328 33.0062H27.3334V33.6742C27.3334 34.6467 26.9471 35.5793 26.2594 36.2669C25.5718 36.9546 24.6392 37.3409 23.6667 37.3409C22.6942 37.3409 21.7616 36.9546 21.074 36.2669C20.3863 35.5793 20 34.6467 20 33.6742ZM22 33.6742C22 34.1162 22.1756 34.5402 22.4882 34.8527C22.8007 35.1653 23.2247 35.3409 23.6667 35.3409C24.1087 35.3409 24.5326 35.1653 24.8452 34.8527C25.1578 34.5402 25.3334 34.1162 25.3334 33.6742V33.0075H22V33.6742ZM17.3934 18.7409L16.8 25.2849C16.745 25.9079 16.5308 26.5063 16.178 27.0228C15.8252 27.5392 15.3457 27.9564 14.7854 28.2342C14.5492 28.3505 14.3503 28.5307 14.2115 28.7544C14.0727 28.9781 13.9994 29.2363 14 29.4996V30.0089C14.0007 30.2738 14.1064 30.5276 14.2938 30.7147C14.4812 30.9019 14.7352 31.0072 15 31.0075H32.3334C32.5985 31.0072 32.8526 30.9017 33.0401 30.7143C33.2275 30.5268 33.333 30.2727 33.3334 30.0075V29.4982C33.3343 29.2356 33.2615 28.9779 33.1234 28.7545C32.9853 28.5311 32.7874 28.3508 32.552 28.2342C31.991 27.9568 31.5107 27.5398 31.1573 27.0234C30.8038 26.5069 30.5889 25.9083 30.5334 25.2849L29.9414 18.7409C29.7987 17.1755 29.076 15.72 27.9152 14.6601C26.7543 13.6003 25.2392 13.0127 23.6674 13.0127C22.0955 13.0127 20.5804 13.6003 19.4195 14.6601C18.2587 15.72 17.536 17.1755 17.3934 18.7409V18.7409Z" fill="#FFA0A0"/>
</g>
<defs>
<filter id="filter0_d_102_12" x="10" y="10" width="27.3281" height="30.3409" filterUnits="userSpaceOnUse" color-interpolation-filters="sRGB">
<feFlood flood-opacity="0" result="BackgroundImageFix"/>
<feColorMatrix in="SourceAlpha" type="matrix" values="0 0 0 0 0 0 0 0 0 0 0 0 0 0 0 0 0 0 127 0" result="hardAlpha"/>
<feOffset dy="1"/>
<feGaussianBlur stdDeviation="1"/>
<feComposite in2="hardAlpha" operator="out"/>
<feColorMatrix type="matrix" values="0 0 0 0 0 0 0 0 0 0 0 0 0 0 0 0 0 0 0.2 0"/>
<feBlend mode="normal" in2="BackgroundImageFix" result="effect1_dropShadow_102_12"/>
<feBlend mode="normal" in="SourceGraphic" in2="effect1_dropShadow_102_12" result="shape"/>
</filter>
</defs>
</svg>
