<svg width="49" height="49" viewBox="0 0 49 49" fill="none" xmlns="http://www.w3.org/2000/svg">
<circle cx="24.4591" cy="24.4591" r="24.4591" fill="white"/>
<g filter="url(#filter0_d_101_4)">
<path d="M12 15C12 14.7348 12.1054 14.4804 12.2929 14.2929C12.4804 14.1054 12.7348 14 13 14H13.744C15.0107 14 15.7707 14.852 16.204 15.644C16.4933 16.172 16.7027 16.784 16.8667 17.3387C16.911 17.3352 16.9555 17.3334 17 17.3333H33.664C34.7707 17.3333 35.5707 18.392 35.2667 19.4573L32.8293 28.0027C32.6108 28.7691 32.1485 29.4435 31.5124 29.9237C30.8763 30.404 30.101 30.6638 29.304 30.664H21.3733C20.57 30.664 19.7889 30.4002 19.15 29.9132C18.5112 29.4261 18.05 28.7427 17.8373 27.968L16.824 24.272L15.144 18.608L15.1427 18.5973C14.9347 17.8413 14.74 17.1333 14.4493 16.6053C14.1707 16.092 13.9467 16 13.7453 16H13C12.7348 16 12.4804 15.8946 12.2929 15.7071C12.1054 15.5196 12 15.2652 12 15ZM18.764 23.7867L19.7653 27.4387C19.9653 28.1613 20.6227 28.664 21.3733 28.664H29.304C29.6663 28.664 30.0187 28.5459 30.3079 28.3277C30.5971 28.1095 30.8073 27.803 30.9067 27.4547L33.2227 19.3333H17.4467L18.7453 23.716L18.764 23.7867ZM23.3333 34.6667C23.3333 35.3739 23.0524 36.0522 22.5523 36.5523C22.0522 37.0524 21.3739 37.3333 20.6667 37.3333C19.9594 37.3333 19.2811 37.0524 18.781 36.5523C18.281 36.0522 18 35.3739 18 34.6667C18 33.9594 18.281 33.2811 18.781 32.781C19.2811 32.281 19.9594 32 20.6667 32C21.3739 32 22.0522 32.281 22.5523 32.781C23.0524 33.2811 23.3333 33.9594 23.3333 34.6667V34.6667ZM21.3333 34.6667C21.3333 34.4899 21.2631 34.3203 21.1381 34.1953C21.013 34.0702 20.8435 34 20.6667 34C20.4899 34 20.3203 34.0702 20.1953 34.1953C20.0702 34.3203 20 34.4899 20 34.6667C20 34.8435 20.0702 35.013 20.1953 35.1381C20.3203 35.2631 20.4899 35.3333 20.6667 35.3333C20.8435 35.3333 21.013 35.2631 21.1381 35.1381C21.2631 35.013 21.3333 34.8435 21.3333 34.6667ZM32.6667 34.6667C32.6667 35.3739 32.3857 36.0522 31.8856 36.5523C31.3855 37.0524 30.7072 37.3333 30 37.3333C29.2928 37.3333 28.6145 37.0524 28.1144 36.5523C27.6143 36.0522 27.3333 35.3739 27.3333 34.6667C27.3333 33.9594 27.6143 33.2811 28.1144 32.781C28.6145 32.281 29.2928 32 30 32C30.7072 32 31.3855 32.281 31.8856 32.781C32.3857 33.2811 32.6667 33.9594 32.6667 34.6667V34.6667ZM30.6667 34.6667C30.6667 34.4899 30.5964 34.3203 30.4714 34.1953C30.3464 34.0702 30.1768 34 30 34C29.8232 34 29.6536 34.0702 29.5286 34.1953C29.4036 34.3203 29.3333 34.4899 29.3333 34.6667C29.3333 34.8435 29.4036 35.013 29.5286 35.1381C29.6536 35.2631 29.8232 35.3333 30 35.3333C30.1768 35.3333 30.3464 35.2631 30.4714 35.1381C30.5964 35.013 30.6667 34.8435 30.6667 34.6667Z" fill="#FFA0A0"/>
</g>
<defs>
<filter id="filter0_d_101_4" x="10" y="13" width="27.3317" height="27.3333" filterUnits="userSpaceOnUse" color-interpolation-filters="sRGB">
<feFlood flood-opacity="0" result="BackgroundImageFix"/>
<feColorMatrix in="SourceAlpha" type="matrix" values="0 0 0 0 0 0 0 0 0 0 0 0 0 0 0 0 0 0 127 0" result="hardAlpha"/>
<feOffset dy="1"/>
<feGaussianBlur stdDeviation="1"/>
<feComposite in2="hardAlpha" operator="out"/>
<feColorMatrix type="matrix" values="0 0 0 0 0 0 0 0 0 0 0 0 0 0 0 0 0 0 0.2 0"/>
<feBlend mode="normal" in2="BackgroundImageFix" result="effect1_dropShadow_101_4"/>
<feBlend mode="normal" in="SourceGraphic" in2="effect1_dropShadow_101_4" result="shape"/>
</filter>
</defs>
</svg>
