<svg width="49" height="49" viewBox="0 0 49 49" fill="none" xmlns="http://www.w3.org/2000/svg">
<circle cx="24.4591" cy="24.4591" r="24.4591" fill="white"/>
<g clip-path="url(#clip0_1_48)">
<g filter="url(#filter0_d_1_48)">
<path d="M24.2344 14.7969H16.2188C15.9867 14.7969 15.7969 14.9867 15.7969 15.2188V23.2344C15.7969 23.4664 15.9867 23.6562 16.2188 23.6562H24.2344C24.4664 23.6562 24.6562 23.4664 24.6562 23.2344V15.2188C24.6562 14.9867 24.4664 14.7969 24.2344 14.7969ZM22.8633 21.8633H17.5898V16.5898H22.8633V21.8633ZM34.7812 14.7969H26.7656C26.5336 14.7969 26.3438 14.9867 26.3438 15.2188V23.2344C26.3438 23.4664 26.5336 23.6562 26.7656 23.6562H34.7812C35.0133 23.6562 35.2031 23.4664 35.2031 23.2344V15.2188C35.2031 14.9867 35.0133 14.7969 34.7812 14.7969ZM33.4102 21.8633H28.1367V16.5898H33.4102V21.8633ZM34.7812 25.3438H26.7656C26.5336 25.3438 26.3438 25.5336 26.3438 25.7656V33.7812C26.3438 34.0133 26.5336 34.2031 26.7656 34.2031H34.7812C35.0133 34.2031 35.2031 34.0133 35.2031 33.7812V25.7656C35.2031 25.5336 35.0133 25.3438 34.7812 25.3438ZM33.4102 32.4102H28.1367V27.1367H33.4102V32.4102ZM23.1797 29.7734H19.8047V26.3984C19.8047 26.2824 19.7098 26.1875 19.5938 26.1875H18.3281C18.2121 26.1875 18.1172 26.2824 18.1172 26.3984V29.7734H14.7422C14.6262 29.7734 14.5312 29.8684 14.5312 29.9844V31.25C14.5312 31.366 14.6262 31.4609 14.7422 31.4609H18.1172V34.8359C18.1172 34.952 18.2121 35.0469 18.3281 35.0469H19.5938C19.7098 35.0469 19.8047 34.952 19.8047 34.8359V31.4609H23.1797C23.2957 31.4609 23.3906 31.366 23.3906 31.25V29.9844C23.3906 29.8684 23.2957 29.7734 23.1797 29.7734Z" fill="#FFA0A0"/>
</g>
</g>
<defs>
<filter id="filter0_d_1_48" x="12.5312" y="13.7969" width="24.6719" height="24.25" filterUnits="userSpaceOnUse" color-interpolation-filters="sRGB">
<feFlood flood-opacity="0" result="BackgroundImageFix"/>
<feColorMatrix in="SourceAlpha" type="matrix" values="0 0 0 0 0 0 0 0 0 0 0 0 0 0 0 0 0 0 127 0" result="hardAlpha"/>
<feOffset dy="1"/>
<feGaussianBlur stdDeviation="1"/>
<feComposite in2="hardAlpha" operator="out"/>
<feColorMatrix type="matrix" values="0 0 0 0 0 0 0 0 0 0 0 0 0 0 0 0 0 0 0.2 0"/>
<feBlend mode="normal" in2="BackgroundImageFix" result="effect1_dropShadow_1_48"/>
<feBlend mode="normal" in="SourceGraphic" in2="effect1_dropShadow_1_48" result="shape"/>
</filter>
<clipPath id="clip0_1_48">
<rect width="27" height="27" fill="white" transform="translate(12 11)"/>
</clipPath>
</defs>
</svg>
