<svg width="49" height="49" viewBox="0 0 49 49" fill="none" xmlns="http://www.w3.org/2000/svg">
<circle cx="24.4591" cy="24.4591" r="24.4591" fill="white"/>
<g clip-path="url(#clip0_1_36)">
<g filter="url(#filter0_d_1_36)">
<path d="M24.5 16.4844C25.199 16.4844 25.7656 15.9177 25.7656 15.2188C25.7656 14.5198 25.199 13.9531 24.5 13.9531C23.801 13.9531 23.2344 14.5198 23.2344 15.2188C23.2344 15.9177 23.801 16.4844 24.5 16.4844Z" stroke="#FFA0A0" stroke-width="2.53125" stroke-linecap="round" stroke-linejoin="round"/>
<path d="M24.5 25.7656C25.199 25.7656 25.7656 25.199 25.7656 24.5C25.7656 23.801 25.199 23.2344 24.5 23.2344C23.801 23.2344 23.2344 23.801 23.2344 24.5C23.2344 25.199 23.801 25.7656 24.5 25.7656Z" stroke="#FFA0A0" stroke-width="2.53125" stroke-linecap="round" stroke-linejoin="round"/>
<path d="M24.5 35.0469C25.199 35.0469 25.7656 34.4802 25.7656 33.7812C25.7656 33.0823 25.199 32.5156 24.5 32.5156C23.801 32.5156 23.2344 33.0823 23.2344 33.7812C23.2344 34.4802 23.801 35.0469 24.5 35.0469Z" stroke="#FFA0A0" stroke-width="2.53125" stroke-linecap="round" stroke-linejoin="round"/>
</g>
</g>
<defs>
<filter id="filter0_d_1_36" x="19.9688" y="11.6875" width="9.0625" height="27.625" filterUnits="userSpaceOnUse" color-interpolation-filters="sRGB">
<feFlood flood-opacity="0" result="BackgroundImageFix"/>
<feColorMatrix in="SourceAlpha" type="matrix" values="0 0 0 0 0 0 0 0 0 0 0 0 0 0 0 0 0 0 127 0" result="hardAlpha"/>
<feOffset dy="1"/>
<feGaussianBlur stdDeviation="1"/>
<feComposite in2="hardAlpha" operator="out"/>
<feColorMatrix type="matrix" values="0 0 0 0 0 0 0 0 0 0 0 0 0 0 0 0 0 0 0.2 0"/>
<feBlend mode="normal" in2="BackgroundImageFix" result="effect1_dropShadow_1_36"/>
<feBlend mode="normal" in="SourceGraphic" in2="effect1_dropShadow_1_36" result="shape"/>
</filter>
<clipPath id="clip0_1_36">
<rect width="27" height="27" fill="white" transform="translate(11 11)"/>
</clipPath>
</defs>
</svg>
